<?xml version="1.0" standalone="no"?>
<!DOCTYPE svg PUBLIC "-//W3C//DTD SVG 20010904//EN"
 "http://www.w3.org/TR/2001/REC-SVG-20010904/DTD/svg10.dtd">
<svg version="1.0" xmlns="http://www.w3.org/2000/svg"
 width="16.000000pt" height="16.000000pt" viewBox="0 0 16.000000 16.000000"
 preserveAspectRatio="xMidYMid meet">
<metadata>
Created by potrace 1.11, written by Peter Selinger 2001-2013
</metadata>
<g transform="translate(0.000000,16.000000) scale(0.002721,-0.002721)"
fill="#000000" stroke="none">
<path d="M2374 4408 c-39 -40 -172 -188 -295 -328 -410 -468 -591 -669 -802
-888 -75 -79 -140 -154 -143 -167 -3 -13 -1 -32 5 -44 26 -48 37 -45 242 65
430 233 506 264 649 264 74 0 192 -25 249 -52 26 -13 116 -92 230 -203 146
-142 199 -188 246 -210 83 -40 177 -43 370 -15 233 34 279 24 540 -114 87 -47
190 -95 227 -107 170 -54 342 16 445 183 20 32 38 58 41 58 2 0 48 -40 101
-88 53 -48 204 -187 336 -307 132 -120 261 -238 287 -262 53 -48 69 -52 98
-23 37 37 26 60 -112 236 -165 211 -612 810 -908 1218 -124 170 -239 324 -256
343 -57 60 -53 62 -360 -253 -153 -157 -287 -290 -297 -295 -13 -7 -23 -7 -34
3 -47 38 -290 387 -553 793 -78 121 -151 230 -163 243 -37 39 -65 29 -143 -50z"/>
<path d="M1600 2082 c-20 -9 -41 -31 -50 -49 -17 -38 -26 -41 -33 -13 -9 37
-56 41 -174 15 -33 -8 -53 -33 -53 -70 0 -39 -18 -49 -58 -34 -74 29 -206 7
-258 -42 -18 -17 -22 -18 -27 -5 -9 22 -59 45 -122 57 -51 9 -103 5 -186 -16
-24 -6 -25 -4 -21 29 9 81 -15 106 -125 125 -101 19 -207 -14 -275 -86 -69
-72 -98 -227 -63 -337 21 -65 79 -138 134 -166 80 -40 196 -44 283 -9 21 8 31
7 52 -6 29 -19 111 -23 142 -7 11 5 28 6 39 1 31 -12 118 -10 145 4 21 11 33
11 70 -1 99 -30 220 -13 276 39 20 19 21 19 44 -6 43 -45 80 -51 285 -41 66 3
131 5 145 4 40 -2 153 -2 175 0 11 1 49 -1 85 -4 74 -7 119 6 127 36 3 11 7
20 9 20 3 0 28 -13 57 -29 28 -16 68 -32 87 -35 46 -8 130 17 169 50 l31 26
10 -26 c15 -40 51 -49 190 -43 146 5 216 27 270 82 l33 35 18 -29 c52 -86 195
-119 321 -75 32 11 42 11 65 -1 52 -28 194 -15 215 18 4 7 8 47 8 90 0 62 3
77 15 77 12 0 15 -15 15 -79 0 -90 9 -106 66 -117 55 -10 152 0 170 18 15 15
19 14 48 -2 47 -27 87 -32 131 -17 28 10 48 11 65 5 14 -5 50 -7 80 -3 30 3
66 5 80 4 14 -1 57 -3 97 -3 99 -1 106 7 113 132 5 82 7 91 14 57 13 -71 39
-129 67 -156 36 -33 105 -52 148 -39 17 5 62 6 99 3 76 -6 121 7 129 37 7 25
8 25 43 0 67 -47 178 -57 274 -24 33 12 46 12 95 -3 186 -55 332 26 317 175
-2 30 -11 63 -19 76 -12 17 -13 33 -5 80 14 79 3 99 -63 121 -100 33 -218 18
-275 -36 -19 -18 -22 -18 -34 -4 -54 65 -198 76 -281 20 l-37 -24 -4 89 c-4
126 -20 138 -153 110 -71 -15 -85 -30 -85 -90 l0 -48 -49 -12 c-27 -6 -57 -17
-67 -25 -16 -11 -21 -9 -38 12 -17 23 -24 25 -65 19 -25 -4 -55 -6 -66 -5 -11
1 -46 2 -77 2 -32 -1 -71 -1 -88 -1 -16 0 -61 0 -100 0 -38 0 -83 0 -100 0
-16 0 -61 1 -99 2 l-69 1 -4 53 c-3 31 -12 60 -21 69 -19 19 -116 29 -171 19
-55 -11 -66 -28 -66 -107 0 -55 -3 -69 -15 -69 -12 0 -15 14 -15 69 0 79 -11
96 -66 107 -57 11 -152 0 -172 -19 -12 -13 -18 -39 -20 -96 l-4 -79 -34 23
c-72 49 -181 49 -254 1 l-37 -24 -12 33 c-6 18 -33 53 -60 78 -69 65 -130 81
-298 82 -166 0 -167 0 -172 -121 l-3 -86 -22 20 c-29 27 -74 48 -116 56 -46 8
-130 -17 -170 -50 l-30 -26 0 80 c0 139 -19 158 -134 136 -52 -10 -73 -11 -83
-2 -18 15 -73 12 -144 -6 -53 -14 -59 -14 -95 4 -47 25 -69 25 -114 2z m-1092
-248 c13 -9 34 -14 47 -12 20 4 23 0 28 -31 3 -20 6 -42 8 -49 4 -15 -9 -24
-62 -41 -56 -18 -107 -14 -119 8 -14 27 -13 114 2 129 17 17 69 15 96 -4z
m2292 -3 c14 -27 13 -114 -2 -129 -23 -23 -28 -11 -28 68 0 79 9 98 30 61z
m-1263 -143 c-3 -7 -5 -2 -5 12 0 14 2 19 5 13 2 -7 2 -19 0 -25z"/>
</g>
</svg>
